<svg xmlns="http://www.w3.org/2000/svg" xmlns:xlink="http://www.w3.org/1999/xlink" version="1.1" width="56" height="56" viewBox="0 0 56 56" xml:space="preserve">
  <defs/>
  <g style="stroke: none; stroke-width: 0; stroke-dasharray: none; stroke-linecap: butt; stroke-linejoin: miter; stroke-miterlimit: 10; fill: none; fill-rule: nonzero; opacity: 1;" transform="matrix(2.81 0 0 2.81 1.407 1.407)">
    <path d="M17.71 17.235H4.185a0.63 0.63 0 0 1 -0.63 -0.63V3.081a0.63 0.63 0 0 1 0.63 -0.63h13.525a0.63 0.63 0 0 1 0.63 0.63V16.607a0.63 0.63 0 0 1 -0.63 0.63z" style="stroke: none; stroke-width: 1; stroke-dasharray: none; stroke-linecap: butt; stroke-linejoin: miter; stroke-miterlimit: 10; fill: rgb(255,255,255); fill-rule: nonzero; fill-opacity: 1;" stroke-linecap="round"/>
    <path d="M17.71 17.673H4.185A1.068 1.068 0 0 1 3.118 16.607V3.081a1.068 1.068 0 0 1 1.067 -1.068h13.525a1.068 1.068 0 0 1 1.067 1.067V16.607a1.068 1.068 0 0 1 -1.067 1.066zM4.185 2.889a0.192 0.192 0 0 0 -0.192 0.192V16.607c0 0.106 0.086 0.191 0.192 0.191h13.525a0.192 0.192 0 0 0 0.192 -0.191V3.081a0.192 0.192 0 0 0 -0.192 -0.192H4.185z" style="stroke: none; stroke-width: 1; stroke-dasharray: nonae; stroke-linecap: butt; stroke-linejoin: miter; stroke-miterlimit: 10; fill: rgb(25,117,76); fill-rule: nonzero; fill-opacity: 0.3;" stroke-linecap="round"/>
    <path x="61.05" y="20.47" rx="0" ry="0" width="15.93" height="4" style="stroke: none; stroke-width: 1; stroke-dasharray: none; stroke-linecap: butt; stroke-linejoin: miter; stroke-miterlimit: 10; fill: rgb(25,117,76); fill-rule: nonzero; fill-opacity: 0.40;" d="M13.354 4.478h3.485v0.876h-3.485v-0.876z"/>
    <path x="61.05" y="31.74" rx="0" ry="0" width="15.93" height="4" style="stroke: none; stroke-width: 1; stroke-dasharray: none; stroke-linecap: butt; stroke-linejoin: miter; stroke-miterlimit: 10; fill: rgb(25,117,76); fill-rule: nonzero; fill-opacity: 0.40;" d="M13.354 6.943h3.485v0.876h-3.485v-0.876z"/>
    <path x="61.05" y="43" rx="0" ry="0" width="15.93" height="4" style="stroke: none; stroke-width: 1; stroke-dasharray: none; stroke-linecap: butt; stroke-linejoin: miter; stroke-miterlimit: 10; fill: rgb(25,117,76); fill-rule: nonzero; fill-opacity: 0.40;" d="M13.354 9.406h3.485v0.876h-3.485v-0.876z"/>
    <path x="61.05" y="54.26" rx="0" ry="0" width="15.93" height="4" style="stroke: none; stroke-width: 1; stroke-dasharray: none; stroke-linecap: butt; stroke-linejoin: miter; stroke-miterlimit: 10; fill: rgb(25,117,76); fill-rule: nonzero; fill-opacity: 0.40;" d="M13.354 11.869h3.485v0.876h-3.485v-0.876z"/>
    <path x="61.05" y="65.53" rx="0" ry="0" width="15.93" height="4" style="stroke: none; stroke-width: 1; stroke-dasharray: none; stroke-linecap: butt; stroke-linejoin: miter; stroke-miterlimit: 10; fill: rgb(25,117,76); fill-rule: nonzero; fill-opacity: 0.40;" d="M13.354 14.335h3.485v0.875h-3.485v-0.876z"/>
    <path x="39.76" y="20.47" rx="0" ry="0" width="15.93" height="4" style="stroke: none; stroke-width: 1; stroke-dasharray: none; stroke-linecap: butt; stroke-linejoin: miter; stroke-miterlimit: 10; fill: rgb(25,117,76); fill-rule: nonzero; fill-opacity: 0.40;" d="M8.697 4.478h3.485v0.876H8.697v-0.876z"/>
    <path x="39.76" y="31.74" rx="0" ry="0" width="15.93" height="4" style="stroke: none; stroke-width: 1; stroke-dasharray: none; stroke-linecap: butt; stroke-linejoin: miter; stroke-miterlimit: 10; fill: rgb(25,117,76); fill-rule: nonzero; fill-opacity: 0.40;" d="M8.697 6.943h3.485v0.876H8.697v-0.876z"/>
    <path x="39.76" y="43" rx="0" ry="0" width="15.93" height="4" style="stroke: none; stroke-width: 1; stroke-dasharray: none; stroke-linecap: butt; stroke-linejoin: miter; stroke-miterlimit: 10; fill: rgb(25,117,76); fill-rule: nonzero; fill-opacity: 0.40;" d="M8.697 9.406h3.485v0.876H8.697v-0.876z"/>
    <path x="39.76" y="54.26" rx="0" ry="0" width="15.93" height="4" style="stroke: none; stroke-width: 1; stroke-dasharray: none; stroke-linecap: butt; stroke-linejoin: miter; stroke-miterlimit: 10; fill: rgb(25,117,76); fill-rule: nonzero; fill-opacity: 0.40;" d="M8.697 11.869h3.485v0.876H8.697v-0.876z"/>
    <path x="39.76" y="65.53" rx="0" ry="0" width="15.93" height="4" style="stroke: none; stroke-width: 1; stroke-dasharray: none; stroke-linecap: butt; stroke-linejoin: miter; stroke-miterlimit: 10; fill: rgb(25,117,76); fill-rule: nonzero; fill-opacity: 0.40;" d="M8.697 14.335h3.485v0.875H8.697v-0.876z"/>
    <path points="51.33,90 6.17,78.79 6.17,11.21 51.33,0 " style="stroke: none; stroke-width: 1; stroke-dasharray: none; stroke-linecap: butt; stroke-linejoin: miter; stroke-miterlimit: 10; fill: rgb(25,117,76); fill-rule: nonzero; fill-opacity: 0.95;" d="M11.228 19.687 1.35 17.235V2.452L11.228 0Z"/>
    <path points="38.15,28.21 31.01,28.62 26.67,37.72 22.56,29.1 15.8,29.48 23.2,45 15.8,60.52 22.56,60.9 26.67,52.28 31.01,61.38 38.15,61.79 30.14,45 " style="stroke: none; stroke-width: 1; stroke-dasharray: none; stroke-linecap: butt; stroke-linejoin: miter; stroke-miterlimit: 10; fill: rgb(255,255,255); fill-rule: nonzero; fill-opacity: 1;" d="m8.345 6.171 -1.562 0.09 -0.949 1.991 -0.899 -1.886 -1.478 0.083 1.619 3.396 -1.619 3.395 1.479 0.083 0.899 -1.886 0.949 1.991L8.346 13.517l-1.752 -3.673Z"/>
  </g>
</svg>
